<svg width="168" height="151" viewBox="0 0 168 151" fill="none" xmlns="http://www.w3.org/2000/svg">
<path d="M42.5387 1.65735L2.09277 75.9777L42.5387 149.657H126.201L166.093 75.9777L126.201 1.65735H42.5387Z" fill="white" stroke="black" stroke-width="2"/>
<path d="M79.7048 68.7473L75.5516 76.517L79.7048 84.2198H88.2956L92.3919 76.517L88.2956 68.7473H79.7048Z" fill="#1E1E1E" stroke="#FFFEFE"/>
<ellipse cx="83.9716" cy="76" rx="42.1005" ry="44" fill="#1E1E1E" stroke="#FFFEFE"/>
<ellipse cx="83.9717" cy="76" rx="5.61341" ry="5.31868" fill="#1E1E1E" stroke="#FFFEFE"/>
<rect x="79.2938" y="83.2527" width="9.35568" height="36.7473" fill="#1E1E1E" stroke="#FFFEFE"/>
<rect x="79.2938" y="32" width="9.35568" height="36.7473" fill="#1E1E1E" stroke="#FFFEFE"/>
<rect width="9.13548" height="35.7543" transform="matrix(0.502658 0.864486 -0.849438 0.527689 117.987 49.6219)" fill="#1E1E1E" stroke="#FFFEFE"/>
<rect width="9.13722" height="35.7473" transform="matrix(0.497004 0.867748 -0.852973 0.521955 76.1484 75.6425)" fill="#1E1E1E" stroke="#FFFEFE"/>
<rect width="9.14381" height="35.7207" transform="matrix(-0.474954 0.88001 -0.866296 -0.499531 80.2584 68.5021)" fill="#1E1E1E" stroke="#FFFEFE"/>
<rect width="9.14065" height="35.7335" transform="matrix(-0.48564 0.874159 -0.859931 -0.51041 122.61 93.8063)" fill="#1E1E1E" stroke="#FFFEFE"/>
<ellipse cx="83.9717" cy="76.4835" rx="35.5516" ry="36.7473" fill="#1E1E1E" stroke="#FFFEFE"/>
<rect x="79.2938" y="84.2198" width="9.35568" height="4.83516" fill="#1E1E1E" stroke="#FFFEFE"/>
<rect x="79.2938" y="89.0549" width="9.35568" height="5.8022" fill="#1E1E1E" stroke="#FFFEFE"/>
<rect x="79.2938" y="94.8571" width="9.35568" height="5.8022" fill="#1E1E1E" stroke="#FFFEFE"/>
<rect x="79.2938" y="100.659" width="9.35568" height="5.8022" fill="#1E1E1E" stroke="#FFFEFE"/>
<path d="M88.6495 106.462H79.2938V111.953C80.6668 112.057 83.5774 112.264 84.2364 112.264C84.8955 112.264 87.4531 112.057 88.6495 111.953V106.462Z" fill="#1E1E1E" stroke="#FFFEFE"/>
<path d="M88.6495 119.811V112.264L83.9717 112.68L79.2938 112.264V119.811C80.6668 119.953 83.3126 120 83.9717 120C84.6307 120 87.4531 119.953 88.6495 119.811Z" fill="#1E1E1E" stroke="#FFFEFE"/>
<path d="M75.3353 111.413L73.6113 118.37C74.3688 118.484 76.0449 119.055 76.6198 119.118C78.1797 119.292 78.514 119.407 79.3552 119.522L79.3521 112.201L77.3966 111.874L75.3353 111.413Z" fill="#1E1E1E" stroke="#FFFEFE"/>
<path d="M59.1413 101.765L54.055 106.656C53.5957 106.023 52.3093 104.775 51.9801 104.283C51.087 102.95 50.8293 102.702 50.329 101.993L56.2808 98.3989L57.764 100.114L59.1413 101.765Z" fill="#1E1E1E" stroke="#FFFEFE"/>
<path d="M70.962 110.109L68.4065 116.414C69.1097 116.723 70.1452 117.137 70.695 117.31C71.2448 117.483 72.366 117.849 73.1001 118.044L75.1216 111.622L72.9379 110.915L70.962 110.109Z" fill="#1E1E1E" stroke="#FFFEFE"/>
<path d="M66.6178 107.987L63.4549 114.005C64.1241 114.386 65.1145 114.893 65.6444 115.123C66.1744 115.353 67.2544 115.821 67.9656 116.092L70.6072 109.929L68.5043 108.996L66.6178 107.987Z" fill="#1E1E1E" stroke="#FFFEFE"/>
<path d="M62.7593 105.267L58.6516 110.666C59.2824 111.205 60.2214 111.926 60.7314 112.281C61.2415 112.635 62.2785 113.337 62.9684 113.774L66.5685 108.146L64.5476 106.72L62.7593 105.267Z" fill="#1E1E1E" stroke="#FFFEFE"/>
<path d="M59.1511 102.286L54.3782 107.063C54.9052 107.635 55.707 108.404 56.1455 108.788C56.584 109.172 57.4825 109.932 58.0819 110.412L62.3903 105.379L60.6565 103.835L59.1511 102.286Z" fill="#1E1E1E" stroke="#FFFEFE"/>
<path d="M79.2939 84.2198L55.9047 98.3567C56.5202 99.3911 58.5793 101.598 59.4298 102.609C60.493 103.874 63.2348 105.942 64.9134 107.149C66.5921 108.356 69.9494 109.908 72.4673 110.827C74.4817 111.563 77.8577 112.091 79.2939 112.264V84.2198Z" fill="#1E1E1E" stroke="#FFFEFE"/>
<rect width="9.13751" height="5.39564" transform="matrix(-0.496036 0.868302 -0.853573 -0.520973 79.7894 68.0797)" fill="#1E1E1E" stroke="#FFFEFE"/>
<rect width="9.13751" height="5.39564" transform="matrix(-0.496036 0.868302 -0.853573 -0.520973 75.1837 65.2687)" fill="#1E1E1E" stroke="#FFFEFE"/>
<rect width="9.13751" height="5.39564" transform="matrix(-0.496036 0.868302 -0.853573 -0.520973 70.5782 62.4576)" fill="#1E1E1E" stroke="#FFFEFE"/>
<rect width="9.13751" height="5.39564" transform="matrix(-0.496036 0.868302 -0.853573 -0.520973 65.9727 59.6467)" fill="#1E1E1E" stroke="#FFFEFE"/>
<path d="M56.7386 64.7113L61.2711 56.7772L56.1858 53.6734C55.4247 54.7791 53.8227 57.1304 53.5034 57.6893C53.1841 58.2482 52.1369 60.5343 51.6533 61.6075L56.7386 64.7113Z" fill="#1E1E1E" stroke="#FFFEFE"/>
<path d="M45.569 57.894L51.6533 61.6075L53.5837 57.4354L56.1858 53.6733L50.1016 49.9599C49.3216 51.0541 48.0021 53.275 47.6828 53.8339C47.3635 54.3927 46.0339 56.8093 45.569 57.894Z" fill="#1E1E1E" stroke="#FFFEFE"/>
<path d="M59.0871 50.2948L54.1686 45.2234C53.6882 45.8395 52.3606 47.0411 52.015 47.5203C51.0776 48.8206 50.8117 49.0596 50.2878 49.7497L56.3887 53.4696L57.655 51.8951L59.0871 50.2948Z" fill="#1E1E1E" stroke="#FFFEFE"/>
<path d="M75.3587 40.7871L73.87 33.773C74.6308 33.686 76.3251 33.1759 76.9019 33.1328C78.4667 33.0158 78.8046 32.9128 79.6492 32.8277L79.6172 39.9526L77.4343 40.4006L75.3587 40.7871Z" fill="#1E1E1E" stroke="#FFFEFE"/>
<path d="M62.3971 47.0656L58.4442 41.5854C57.829 42.054 56.9577 42.7652 56.534 43.1666C56.1103 43.568 55.2355 44.3799 54.7 44.9342L59.0219 49.9987L60.7214 48.4147L62.3971 47.0656Z" fill="#1E1E1E" stroke="#FFFEFE"/>
<path d="M66.3735 44.2777L62.9688 38.4031C62.3107 38.8046 61.3848 39.4284 60.9239 39.7832C60.4629 40.138 59.5239 40.8613 58.9367 41.3566L62.7274 46.8412L64.5738 45.4439L66.3735 44.2777Z" fill="#1E1E1E" stroke="#FFFEFE"/>
<path d="M70.602 42.2269L68.1929 35.8256C67.4225 36.1126 66.3443 36.5817 65.79 36.8556C65.2357 37.1296 64.1235 37.6955 63.4086 38.0874L66.2662 44.1529L68.4817 43.0793L70.602 42.2269Z" fill="#1E1E1E" stroke="#FFFEFE"/>
<path d="M74.9196 40.5309L73.367 33.854C72.6225 34.0322 71.5739 34.3547 71.031 34.5497C70.4881 34.7447 69.3981 35.1579 68.6939 35.4476L70.6962 41.8415L72.8638 41.0832L74.9196 40.5309Z" fill="#1E1E1E" stroke="#FFFEFE"/>
<path d="M79.7217 67.9715L79.7612 40.0405C78.586 40.0589 75.7013 40.7594 74.4264 40.9978C72.8327 41.2957 69.7175 42.6715 67.8602 43.5442C66.0029 44.4169 63.0079 46.6016 60.9655 48.3646C59.3316 49.775 57.1811 52.4974 56.3101 53.6824L79.7217 67.9715Z" fill="#1E1E1E" stroke="#FFFEFE"/>
<path d="M88.5246 68.1354L111.764 53.8833C111.148 52.849 109.09 50.6451 108.24 49.6347C107.177 48.3717 104.44 46.3085 102.764 45.1053C101.088 43.9021 97.7403 42.3596 95.23 41.4474C93.2218 40.7176 89.8586 40.2002 88.428 40.0326L88.5246 68.1354Z" fill="#1E1E1E" stroke="#FFFEFE"/>
<rect width="9.13946" height="5.39446" transform="matrix(0.489618 -0.871937 0.857517 0.514455 88.2386 84.0814)" fill="#1E1E1E" stroke="#FFFEFE"/>
<rect width="9.13946" height="5.39446" transform="matrix(0.489618 -0.871937 0.857517 0.514455 92.8645 86.8567)" fill="#1E1E1E" stroke="#FFFEFE"/>
<rect width="9.13946" height="5.39446" transform="matrix(0.489618 -0.871937 0.857517 0.514455 97.4902 89.6318)" fill="#1E1E1E" stroke="#FFFEFE"/>
<rect width="9.13946" height="5.39446" transform="matrix(0.489618 -0.871937 0.857517 0.514455 102.116 92.4071)" fill="#1E1E1E" stroke="#FFFEFE"/>
<path d="M111.313 87.2711L106.838 95.2401L111.946 98.3044C112.699 97.1928 114.284 94.8291 114.599 94.2678C114.914 93.7065 115.945 91.4123 116.421 90.3354L111.313 87.2711Z" fill="#1E1E1E" stroke="#FFFEFE"/>
<path d="M122.532 94.0015L116.421 90.3353L114.521 94.5222L111.946 98.3043L118.057 101.971C118.829 100.87 120.132 98.6392 120.448 98.0779C120.763 97.5166 122.075 95.0898 122.532 94.0015Z" fill="#1E1E1E" stroke="#FFFEFE"/>
<path d="M109.069 101.705L114.025 106.738C114.5 106.119 115.819 104.907 116.161 104.425C117.089 103.117 117.353 102.876 117.872 102.182L111.745 98.5097L110.49 100.094L109.069 101.705Z" fill="#1E1E1E" stroke="#FFFEFE"/>
<path d="M92.8671 111.339L94.4066 118.341C93.6464 118.434 91.9559 118.957 91.3794 119.005C89.8156 119.134 89.4784 119.24 88.6344 119.331L88.6147 112.206L90.7943 111.741L92.8671 111.339Z" fill="#1E1E1E" stroke="#FFFEFE"/>
<path d="M105.783 104.96L109.775 110.41C110.387 109.936 111.253 109.218 111.674 108.814C112.095 108.409 112.964 107.59 113.495 107.032L109.137 102.001L107.449 103.598L105.783 104.96Z" fill="#1E1E1E" stroke="#FFFEFE"/>
<path d="M101.827 107.779L105.274 113.627C105.929 113.22 106.851 112.589 107.309 112.231C107.767 111.872 108.701 111.142 109.285 110.642L105.454 105.187L103.618 106.599L101.827 107.779Z" fill="#1E1E1E" stroke="#FFFEFE"/>
<path d="M97.6133 109.862L100.069 116.245C100.837 115.952 101.912 115.474 102.464 115.196C103.016 114.918 104.125 114.343 104.837 113.946L101.935 107.903L99.7273 108.993L97.6133 109.862Z" fill="#1E1E1E" stroke="#FFFEFE"/>
<path d="M93.3082 111.592L94.9092 118.256C95.6524 118.073 96.6986 117.742 97.2401 117.543C97.7815 117.344 98.8686 116.922 99.5706 116.627L97.522 110.248L95.3599 111.024L93.3082 111.592Z" fill="#1E1E1E" stroke="#FFFEFE"/>
<path d="M88.307 84.1891L88.4702 112.12C89.6452 112.092 92.5247 111.369 93.7979 111.121C95.3894 110.811 98.4945 109.411 100.345 108.524C102.196 107.637 105.175 105.429 107.205 103.65C108.829 102.227 110.959 99.488 111.822 98.2964L88.307 84.1891Z" fill="#1E1E1E" stroke="#FFFEFE"/>
<rect width="9.14084" height="5.39362" transform="matrix(-0.485027 -0.874499 0.8603 -0.509788 92.7056 76.0276)" fill="#1E1E1E" stroke="#FFFEFE"/>
<rect width="9.14084" height="5.39362" transform="matrix(-0.485027 -0.874499 0.8603 -0.509788 97.3458 73.278)" fill="#1E1E1E" stroke="#FFFEFE"/>
<rect width="9.14084" height="5.39362" transform="matrix(-0.485027 -0.874499 0.8603 -0.509788 101.986 70.5284)" fill="#1E1E1E" stroke="#FFFEFE"/>
<rect width="9.14084" height="5.39362" transform="matrix(-0.485027 -0.874499 0.8603 -0.509788 106.626 67.7788)" fill="#1E1E1E" stroke="#FFFEFE"/>
<path d="M106.929 56.9783L111.363 64.9719L116.486 61.9359C115.932 60.7056 114.746 58.1041 114.434 57.541C114.122 56.9779 112.716 54.9072 112.053 53.9423L106.929 56.9783Z" fill="#1E1E1E" stroke="#FFFEFE"/>
<path d="M118.183 50.3098L112.053 53.9422L114.608 57.7385L116.486 61.9359L122.616 58.3035C122.081 57.0619 120.865 54.7787 120.553 54.2156C120.241 53.6525 118.865 51.2635 118.183 50.3098Z" fill="#1E1E1E" stroke="#FFFEFE"/>
<path d="M117.894 66.2126L124.59 64.2987C124.31 63.5626 123.955 61.7758 123.723 61.2285C123.092 59.7435 123.022 59.3865 122.701 58.5748L116.557 62.219L117.256 64.1349L117.894 66.2126Z" fill="#1E1E1E" stroke="#FFFEFE"/>
<path d="M117.85 85.5327L124.486 87.661C124.183 88.3877 123.775 90.1623 123.526 90.7019C122.851 92.1658 122.771 92.5204 122.425 93.3214L116.448 89.7719L117.15 87.5889L117.85 85.5327Z" fill="#1E1E1E" stroke="#FFFEFE"/>
<path d="M118.975 70.7828L125.537 69.9387C125.447 69.1543 125.28 68.0199 125.151 67.4408C125.023 66.8617 124.773 65.6745 124.571 64.9193L118.176 66.3004L118.668 68.6103L118.975 70.7828Z" fill="#1E1E1E" stroke="#FFFEFE"/>
<path d="M119.355 75.7336L125.978 75.5771C125.966 74.7873 125.899 73.647 125.828 73.0575C125.757 72.468 125.613 71.2667 125.487 70.4943L119 71.1905L119.263 73.5401L119.355 75.7336Z" fill="#1E1E1E" stroke="#FFFEFE"/>
<path d="M118.99 80.5467L125.564 81.545C125.704 80.7109 125.842 79.5103 125.885 78.8768C125.929 78.2433 126.003 76.9642 126.026 76.1282L119.512 75.6987L119.321 78.2202L118.99 80.5467Z" fill="#1E1E1E" stroke="#FFFEFE"/>
<path d="M118.283 85.2648L124.666 87.169C124.884 86.4119 125.131 85.3103 125.235 84.7261C125.339 84.1419 125.531 82.9581 125.635 82.1822L119.268 80.8219L118.834 83.1445L118.283 85.2648Z" fill="#1E1E1E" stroke="#FFFEFE"/>
<path d="M92.8301 76.0203L116.303 89.8578C116.868 88.7927 117.705 85.8543 118.134 84.5909C118.671 83.0115 119.053 79.5323 119.237 77.4321C119.421 75.3318 119.063 71.5608 118.59 68.8543C118.211 66.6892 116.984 63.4114 116.417 62.0431L92.8301 76.0203Z" fill="#1E1E1E" stroke="#FFFEFE"/>
<rect width="8.91428" height="5.52845" transform="matrix(-0.999994 0.00349898 -0.00327499 -0.999995 88.3223 68.0568)" fill="#1E1E1E" stroke="#FFFEFE"/>
<rect width="8.91428" height="5.52845" transform="matrix(-0.999994 0.00349898 -0.00327499 -0.999995 88.3042 62.5284)" fill="#1E1E1E" stroke="#FFFEFE"/>
<rect width="8.91428" height="5.52845" transform="matrix(-0.999994 0.00349898 -0.00327499 -0.999995 88.2861 57)" fill="#1E1E1E" stroke="#FFFEFE"/>
<rect width="8.91428" height="5.52845" transform="matrix(-0.999994 0.00349898 -0.00327499 -0.999995 88.2681 51.4716)" fill="#1E1E1E" stroke="#FFFEFE"/>
<path d="M79.3353 45.8592L88.2495 45.828L88.2295 39.7237C86.921 39.6131 84.1469 39.3925 83.519 39.3947C82.8911 39.3969 80.4549 39.6357 79.3153 39.7549L79.3353 45.8592Z" fill="#1E1E1E" stroke="#FFFEFE"/>
<path d="M79.2914 32.4515L79.3153 39.7548L83.7711 39.3361L88.2295 39.7236L88.2056 32.4203C86.897 32.2871 84.3758 32.2506 83.7479 32.2528C83.1199 32.255 80.4309 32.3097 79.2914 32.4515Z" fill="#1E1E1E" stroke="#FFFEFE"/>
<path d="M92.5221 40.5731L94.2232 33.6108C93.4654 33.4992 91.7875 32.9343 91.2123 32.8725C89.6519 32.7047 89.3172 32.5908 88.4756 32.4783L88.5027 39.7998L90.4592 40.1194L92.5221 40.5731Z" fill="#1E1E1E" stroke="#FFFEFE"/>
<path d="M108.748 50.1646L113.818 45.2555C114.279 45.8869 115.57 47.131 115.9 47.6213C116.798 48.9514 117.056 49.1989 117.559 49.9056L111.619 53.5206L110.13 51.8107L108.748 50.1646Z" fill="#1E1E1E" stroke="#FFFEFE"/>
<path d="M96.8996 41.862L99.4344 35.5484C98.7302 35.2415 97.6934 34.8312 97.143 34.6602C96.5926 34.4891 95.4703 34.1272 94.7356 33.935L92.735 40.3638L94.921 41.0634L96.8996 41.862Z" fill="#1E1E1E" stroke="#FFFEFE"/>
<path d="M101.251 43.9683L104.394 37.9401C103.723 37.5608 102.731 37.0573 102.201 36.8293C101.67 36.6013 100.588 36.1371 99.8763 35.8687L97.2549 42.0406L99.3608 42.9661L101.251 43.9683Z" fill="#1E1E1E" stroke="#FFFEFE"/>
<path d="M105.118 46.6757L109.208 41.2623C108.576 40.7248 107.634 40.007 107.123 39.6547C106.612 39.3024 105.572 38.6039 104.881 38.1693L101.3 43.8093L103.325 45.2282L105.118 46.6757Z" fill="#1E1E1E" stroke="#FFFEFE"/>
<path d="M108.736 49.6435L113.493 44.85C112.964 44.2798 112.16 43.5133 111.72 43.1308C111.281 42.7483 110.38 41.9914 109.779 41.514L105.487 46.5622L107.226 48.0999L108.736 49.6435Z" fill="#1E1E1E" stroke="#FFFEFE"/>
<rect width="9.14232" height="5.39271" transform="matrix(0.480033 0.87725 -0.863292 0.504705 75.255 76.0665)" fill="#1E1E1E" stroke="#FFFEFE"/>
<rect width="9.14232" height="5.39271" transform="matrix(0.480033 0.87725 -0.863292 0.504705 70.5996 78.7881)" fill="#1E1E1E" stroke="#FFFEFE"/>
<rect width="9.14232" height="5.39271" transform="matrix(0.480033 0.87725 -0.863292 0.504705 65.9441 81.5099)" fill="#1E1E1E" stroke="#FFFEFE"/>
<rect width="9.14232" height="5.39271" transform="matrix(0.480033 0.87725 -0.863292 0.504705 61.2886 84.2316)" fill="#1E1E1E" stroke="#FFFEFE"/>
<path d="M60.9247 95.0301L56.5361 87.01L51.3957 90.0153C51.9427 91.2489 53.1141 93.8575 53.4232 94.4224C53.7324 94.9873 55.1261 97.0664 55.7843 98.0354L60.9247 95.0301Z" fill="#1E1E1E" stroke="#FFFEFE"/>
<path d="M49.6342 101.631L55.7844 98.0354L53.2506 94.2238L51.3958 90.0153L45.2456 93.6108C45.7736 94.8556 46.9766 97.146 47.2858 97.711C47.5949 98.2759 48.9569 100.673 49.6342 101.631Z" fill="#1E1E1E" stroke="#FFFEFE"/>
<path d="M50.0117 85.7303L43.305 87.6039C43.5817 88.3417 43.9263 90.1306 44.1556 90.6793C44.7777 92.168 44.8453 92.5255 45.1623 93.3391L51.3261 89.7318L50.6383 87.8118L50.0117 85.7303Z" fill="#1E1E1E" stroke="#FFFEFE"/>
<path d="M50.1639 66.4106L43.5409 64.2426C43.8478 63.5177 44.2659 61.7456 44.5177 61.2075C45.2007 59.7477 45.283 59.3935 45.6334 58.5946L51.5902 62.1799L50.8761 64.3587L50.1639 66.4106Z" fill="#1E1E1E" stroke="#FFFEFE"/>
<path d="M48.957 81.1537L42.3898 81.9584C42.4755 82.7433 42.6367 83.8788 42.7617 84.4586C42.8867 85.0384 43.1306 86.2272 43.328 86.9835L49.731 85.6408L49.2515 83.328L48.957 81.1537Z" fill="#1E1E1E" stroke="#FFFEFE"/>
<path d="M48.6049 76.2007L41.9807 76.3175C41.9888 77.1073 42.0494 78.2479 42.1168 78.8379C42.1841 79.4279 42.3217 80.63 42.4438 81.4031L48.9338 80.7459L48.6841 78.3947L48.6049 76.2007Z" fill="#1E1E1E" stroke="#FFFEFE"/>
<path d="M48.9966 71.3897L42.4278 70.352C42.2838 71.1852 42.1388 72.385 42.0918 73.0182C42.0447 73.6515 41.9639 74.9302 41.9356 75.766L48.4468 76.2345L48.6527 73.7142L48.9966 71.3897Z" fill="#1E1E1E" stroke="#FFFEFE"/>
<path d="M49.7299 66.676L43.3576 64.7335C43.1354 65.4893 42.8823 66.5894 42.7748 67.173C42.6672 67.7565 42.4695 68.9391 42.3608 69.7144L48.7204 71.1128L49.1667 68.7929L49.7299 66.676Z" fill="#1E1E1E" stroke="#FFFEFE"/>
<path d="M75.1307 76.073L51.7357 62.0949C51.1645 63.1566 50.3117 66.0899 49.8751 67.3508C49.3294 68.9269 48.9276 72.4037 48.7321 74.5029C48.5366 76.602 48.8729 80.3751 49.3313 83.0843C49.698 85.2518 50.9067 88.5368 51.4653 89.9085L75.1307 76.073Z" fill="#1E1E1E" stroke="#FFFEFE"/>
</svg>
