<svg width="945" height="1024" viewBox="0 0 945 1024" fill="none" xmlns="http://www.w3.org/2000/svg">
<path d="M701.593 896.8C595.407 896.8 355.305 896.8 242.355 896.8C234.7 896.8 226.798 868.988 226.798 868.988H717.148C717.148 868.988 709.25 896.8 701.593 896.8Z" fill="url(#paint0_linear_144_692)"/>
<path d="M826.512 895.4C662.559 895.4 291.833 895.4 117.436 895.4C105.615 895.4 93.4165 854.988 93.4165 854.988H850.53C850.53 854.988 838.333 895.4 826.512 895.4Z" fill="url(#paint1_linear_144_692)"/>
<path d="M175.854 207.521H172.564C172.666 208 172.734 208.501 172.734 209.025C172.734 212.021 170.913 214.451 168.664 214.451C166.417 214.451 164.594 212.024 164.594 209.025C164.594 208.501 164.655 208 164.76 207.521H161.612V215.588H175.852L175.854 207.521Z" fill="#9FA0A4"/>
<path d="M177.305 189.733H160.094C155.6 189.733 151.958 194.591 151.958 200.58V203.022C151.958 197.03 155.602 192.174 160.094 192.174H177.305C181.799 192.174 185.441 197.032 185.441 203.022V200.58C185.443 194.591 181.799 189.733 177.305 189.733Z" fill="#F8F9F9"/>
<path d="M177.305 191.06H160.094C155.6 191.06 151.958 195.918 151.958 201.907V231.419H185.443V201.907C185.443 195.915 181.799 191.06 177.305 191.06ZM168.666 215.19C166.419 215.19 164.596 212.763 164.596 209.764C164.596 207.594 165.558 205.738 166.938 204.87V200.927C166.938 199.704 167.681 198.71 168.601 198.71C169.518 198.71 170.264 199.701 170.264 200.927V204.774C171.717 205.603 172.736 207.524 172.736 209.764C172.734 212.76 170.913 215.19 168.666 215.19Z" fill="url(#paint2_linear_144_692)"/>
<path d="M168.599 198.245C167.294 198.245 166.236 199.664 166.236 201.417C166.236 202.299 166.505 203.094 166.935 203.668V200.947C166.935 199.715 167.679 198.712 168.599 198.712C169.516 198.712 170.262 199.712 170.262 200.947V203.668C170.694 203.094 170.961 202.299 170.961 201.417C170.961 199.664 169.905 198.245 168.599 198.245Z" fill="#6F7072"/>
<path d="M168.599 203.932C169.903 203.932 170.961 202.521 170.961 200.782C170.961 199.042 169.903 197.632 168.599 197.632C167.294 197.632 166.236 199.042 166.236 200.782C166.236 202.521 167.294 203.932 168.599 203.932Z" fill="url(#paint3_linear_144_692)"/>
<path d="M166.467 201.045C166.467 199.522 167.393 198.29 168.533 198.29C169.676 198.29 170.6 199.524 170.6 201.045C170.6 202.568 169.674 203.8 168.533 203.8C167.393 203.8 166.467 202.565 166.467 201.045Z" fill="url(#paint4_radial_144_692)"/>
<path d="M168.534 198.55C169.64 198.55 170.526 199.718 170.581 201.176C170.583 201.132 170.602 201.092 170.602 201.045C170.602 199.522 169.676 198.29 168.536 198.29C167.393 198.29 166.469 199.524 166.469 201.045C166.469 201.092 166.488 201.129 166.488 201.176C166.541 199.718 167.427 198.55 168.534 198.55Z" fill="white"/>
<path d="M167.654 202.907C167.593 202.994 167.49 202.999 167.427 202.918C167.362 202.837 167.358 202.697 167.418 202.61L169.584 199.468C169.663 199.354 169.781 199.345 169.846 199.454C169.911 199.561 169.899 199.74 169.819 199.852L167.654 202.907Z" fill="#6F7072"/>
<path d="M167.282 199.852C167.202 199.74 167.19 199.561 167.255 199.454C167.32 199.345 167.439 199.351 167.519 199.468L169.684 202.61C169.745 202.7 169.741 202.837 169.676 202.918C169.611 202.999 169.51 202.994 169.449 202.907L167.282 199.852Z" fill="#6F7072"/>
<path d="M783.453 207.521H780.163C780.266 208 780.333 208.501 780.333 209.025C780.333 212.021 778.512 214.451 776.263 214.451C774.016 214.451 772.193 212.024 772.193 209.025C772.193 208.501 772.254 208 772.359 207.521H769.211V215.588H783.451V207.521H783.453Z" fill="#9FA0A4"/>
<path d="M784.907 189.733H767.695C763.201 189.733 759.56 194.591 759.56 200.58V203.022C759.56 197.03 763.201 192.174 767.695 192.174H784.907C789.401 192.174 793.042 197.032 793.042 203.022V200.58C793.042 194.591 789.398 189.733 784.907 189.733Z" fill="#F8F9F9"/>
<path d="M784.907 191.06H767.695C763.201 191.06 759.56 195.918 759.56 201.907V231.419H793.044V201.907C793.042 195.915 789.398 191.06 784.907 191.06ZM776.265 215.19C774.018 215.19 772.195 212.763 772.195 209.764C772.195 207.594 773.157 205.738 774.537 204.87V200.927C774.537 199.704 775.28 198.71 776.2 198.71C777.118 198.71 777.863 199.701 777.863 200.927V204.774C779.316 205.603 780.335 207.524 780.335 209.764C780.333 212.76 778.512 215.19 776.265 215.19Z" fill="url(#paint5_linear_144_692)"/>
<path d="M776.2 198.245C774.896 198.245 773.837 199.664 773.837 201.417C773.837 202.299 774.106 203.094 774.537 203.668V200.947C774.537 199.715 775.28 198.712 776.2 198.712C777.118 198.712 777.863 199.712 777.863 200.947V203.668C778.296 203.094 778.562 202.299 778.562 201.417C778.562 199.664 777.504 198.245 776.2 198.245Z" fill="#6F7072"/>
<path d="M776.2 203.932C777.505 203.932 778.562 202.521 778.562 200.782C778.562 199.042 777.505 197.632 776.2 197.632C774.895 197.632 773.837 199.042 773.837 200.782C773.837 202.521 774.895 203.932 776.2 203.932Z" fill="url(#paint6_linear_144_692)"/>
<path d="M774.066 201.045C774.066 199.522 774.993 198.29 776.133 198.29C777.275 198.29 778.199 199.524 778.199 201.045C778.199 202.568 777.273 203.8 776.133 203.8C774.993 203.8 774.066 202.565 774.066 201.045Z" fill="url(#paint7_radial_144_692)"/>
<path d="M776.133 198.55C777.24 198.55 778.126 199.718 778.18 201.176C778.182 201.132 778.199 201.092 778.199 201.045C778.199 199.522 777.273 198.29 776.133 198.29C774.99 198.29 774.066 199.524 774.066 201.045C774.066 201.092 774.085 201.129 774.085 201.176C774.14 199.718 775.026 198.55 776.133 198.55Z" fill="white"/>
<path d="M775.253 202.907C775.192 202.994 775.089 202.999 775.024 202.918C774.959 202.837 774.955 202.697 775.016 202.61L777.181 199.468C777.26 199.354 777.378 199.345 777.443 199.454C777.508 199.561 777.496 199.74 777.416 199.852L775.253 202.907Z" fill="#6F7072"/>
<path d="M774.883 199.852C774.803 199.74 774.791 199.561 774.856 199.454C774.921 199.345 775.039 199.351 775.118 199.468L777.281 202.61C777.342 202.7 777.338 202.837 777.273 202.918C777.208 202.999 777.107 202.994 777.046 202.907L774.883 199.852Z" fill="#6F7072"/>
<path d="M852.6 849.245C852.6 863.164 844.137 874.445 833.7 874.445H111.3C100.861 874.445 92.4001 863.164 92.4001 849.245V244.445C92.4001 230.526 100.861 219.245 111.3 219.245H833.7C844.137 219.245 852.6 230.526 852.6 244.445V849.245Z" fill="url(#paint8_linear_144_692)"/>
<path d="M111.3 854.845C108.984 854.845 107.1 852.333 107.1 849.245V244.445C107.1 241.356 108.984 238.845 111.3 238.845H833.7C836.014 238.845 837.9 241.356 837.9 244.445V849.245C837.9 852.333 836.014 854.845 833.7 854.845H111.3Z" fill="#8E8F91"/>
<path d="M111.3 244.445H833.7C833.7 244.445 836.571 241.043 836.768 240.648C836 239.545 834.914 238.845 833.7 238.845H111.3C110.034 238.845 108.908 239.612 108.137 240.799L111.3 244.445Z" fill="#7F7F7F"/>
<path d="M833.7 849.245H111.212L108.45 853.333C109.2 854.263 110.198 854.845 111.3 854.845H833.7C834.904 854.845 835.987 854.159 836.752 853.072L833.7 849.245Z" fill="#C2C3C7"/>
<path d="M835.8 241.645H109.2V852.045H835.8V241.645Z" fill="url(#paint9_linear_144_692)"/>
<path d="M834.75 250.182V245.215C834.75 244.019 834.164 243.045 833.442 243.045H830.031V217.845H833.7C844.7 217.845 853.65 229.778 853.65 244.445V250.182H834.75Z" fill="#404040"/>
<path d="M838.228 248.592C838.228 239.424 837.375 238.842 832.562 238.842H830.031V243.042H833.442C834.164 243.042 834.75 244.016 834.75 245.212V250.179H853.65V248.642L838.228 248.592Z" fill="#2D2D2D"/>
<path d="M848.425 229.353C845.015 223.025 839.589 218.881 833.44 218.881H830V221.594H833.784C839.526 221.594 844.694 224.587 848.425 229.353Z" fill="#8E8F91"/>
<path d="M110.25 250.182V245.215C110.25 244.019 110.836 243.045 111.558 243.045H114.969V217.845H111.3C100.3 217.845 91.3501 229.778 91.3501 244.445V250.182H110.25Z" fill="#404040"/>
<path d="M106.773 248.592C106.773 239.424 107.625 238.842 112.438 238.842H114.969V243.042H111.558C110.836 243.042 110.25 244.016 110.25 245.212V250.179H91.3501V248.642L106.773 248.592Z" fill="#2D2D2D"/>
<path d="M96.575 229.353C99.9854 223.025 105.412 218.881 111.561 218.881H115V221.594H111.216C105.475 221.594 100.307 224.587 96.575 229.353Z" fill="#8E8F91"/>
<path d="M110.25 843.205V848.172C110.25 849.368 110.836 850.342 111.558 850.342H114.969V875.542H111.3C100.3 875.542 91.3501 863.609 91.3501 848.942V843.205H110.25Z" fill="#404040"/>
<path d="M111.558 850.345C110.836 850.345 110.25 849.371 110.25 848.175V843.208H106.852V848.5C107.144 854.111 108.383 854.545 112.438 854.545H114.969V850.345H111.558Z" fill="#2D2D2D"/>
<path d="M111.781 871.564C102.262 871.564 94.2188 863.592 91.5833 852.683C92.9588 865.575 101.258 875.531 111.298 875.531H114.967V871.564H111.781Z" fill="#2D2D2D"/>
<path d="M834.126 843.205V848.172C834.126 849.368 833.54 850.342 832.818 850.342H829.408V875.542H833.076C844.076 875.542 853.026 863.609 853.026 848.942V843.205H834.126Z" fill="#404040"/>
<path d="M832.818 850.345C833.541 850.345 834.127 849.37 834.127 848.175V843.208H837.525V848.5C837.233 854.111 835.994 854.545 831.938 854.545H829.408V850.345H832.818Z" fill="#2D2D2D"/>
<path d="M832.593 871.578C842.113 871.578 850.156 863.606 852.791 852.697C851.416 865.588 843.117 875.545 833.076 875.545H829.408V871.578H832.593Z" fill="#2D2D2D"/>
<path d="M113.879 848.637V247.88H829C829 247.88 734.103 430.11 568.762 582.959C336.254 797.898 113.879 848.637 113.879 848.637Z" fill="#FDFDFD"/>
<path d="M828.45 221.577C828.45 221.835 828.293 222.045 828.099 222.045H116.901C116.708 222.045 116.55 221.835 116.55 221.577C116.55 221.32 116.708 221.11 116.901 221.11H828.102C828.293 221.11 828.45 221.32 828.45 221.577Z" fill="#F8F9F9"/>
<path d="M828.973 873.076C828.973 873.552 828.815 873.938 828.622 873.938H115.79C115.597 873.938 115.439 873.552 115.439 873.076C115.439 872.6 115.597 872.213 115.79 872.213H828.624C828.815 872.213 828.973 872.6 828.973 873.076Z" fill="#7C7D7F"/>
<path d="M224.507 869.147V871.194C227.657 876.606 232.571 880.101 238.109 880.101H706.892C712.427 880.101 717.341 876.606 720.493 871.194V869.147H224.507Z" fill="url(#paint10_linear_144_692)"/>
<path d="M224.507 869.161V868.153C245.177 868.153 704.288 868.153 720.491 868.153V869.161H224.507Z" fill="#F8F8F8"/>
<defs>
<linearGradient id="paint0_linear_144_692" x1="471.975" y1="868.151" x2="471.975" y2="897.809" gradientUnits="userSpaceOnUse">
<stop offset="0.0433" stop-color="#2D2D2D"/>
<stop offset="0.2399" stop-color="#6C6C6C"/>
<stop offset="0.4284" stop-color="#A0A0A0"/>
<stop offset="0.6033" stop-color="#C9C9C9"/>
<stop offset="0.7615" stop-color="#E7E7E7"/>
<stop offset="0.8977" stop-color="#F9F9F9"/>
<stop offset="0.996" stop-color="white"/>
</linearGradient>
<linearGradient id="paint1_linear_144_692" x1="471.975" y1="854.697" x2="471.975" y2="895.035" gradientUnits="userSpaceOnUse">
<stop offset="0.3878" stop-color="#2D2D2D"/>
<stop offset="0.5133" stop-color="#6C6C6C"/>
<stop offset="0.6337" stop-color="#A0A0A0"/>
<stop offset="0.7453" stop-color="#C9C9C9"/>
<stop offset="0.8463" stop-color="#E7E7E7"/>
<stop offset="0.9333" stop-color="#F9F9F9"/>
<stop offset="0.996" stop-color="white"/>
</linearGradient>
<linearGradient id="paint2_linear_144_692" x1="168.7" y1="178.164" x2="168.7" y2="237.083" gradientUnits="userSpaceOnUse">
<stop stop-color="#CACBD0"/>
<stop offset="1" stop-color="#999A9E"/>
</linearGradient>
<linearGradient id="paint3_linear_144_692" x1="168.599" y1="197.806" x2="168.599" y2="203.362" gradientUnits="userSpaceOnUse">
<stop stop-color="white"/>
<stop offset="0.0838" stop-color="#F2F2F3"/>
<stop offset="0.2382" stop-color="#D0D1D3"/>
<stop offset="0.4447" stop-color="#9A9B9F"/>
<stop offset="0.4488" stop-color="#999A9E"/>
<stop offset="1" stop-color="#4C4C4E"/>
</linearGradient>
<radialGradient id="paint4_radial_144_692" cx="0" cy="0" r="1" gradientUnits="userSpaceOnUse" gradientTransform="translate(168.599 198.681) scale(3.83922 5.11897)">
<stop stop-color="white"/>
<stop offset="0.1788" stop-color="#EBEBEC"/>
<stop offset="0.5434" stop-color="#B9B9BA"/>
<stop offset="0.9842" stop-color="#747477"/>
</radialGradient>
<linearGradient id="paint5_linear_144_692" x1="776.3" y1="178.164" x2="776.3" y2="237.083" gradientUnits="userSpaceOnUse">
<stop stop-color="#CACBD0"/>
<stop offset="1" stop-color="#999A9E"/>
</linearGradient>
<linearGradient id="paint6_linear_144_692" x1="776.199" y1="197.806" x2="776.199" y2="203.362" gradientUnits="userSpaceOnUse">
<stop stop-color="white"/>
<stop offset="0.0838" stop-color="#F2F2F3"/>
<stop offset="0.2382" stop-color="#D0D1D3"/>
<stop offset="0.4447" stop-color="#9A9B9F"/>
<stop offset="0.4488" stop-color="#999A9E"/>
<stop offset="1" stop-color="#4C4C4E"/>
</linearGradient>
<radialGradient id="paint7_radial_144_692" cx="0" cy="0" r="1" gradientUnits="userSpaceOnUse" gradientTransform="translate(776.199 198.681) scale(3.83904 5.11869)">
<stop stop-color="white"/>
<stop offset="0.1788" stop-color="#EBEBEC"/>
<stop offset="0.5434" stop-color="#B9B9BA"/>
<stop offset="0.9842" stop-color="#747477"/>
</radialGradient>
<linearGradient id="paint8_linear_144_692" x1="472.5" y1="62.444" x2="472.5" y2="990.325" gradientUnits="userSpaceOnUse">
<stop stop-color="#CACBD0"/>
<stop offset="1" stop-color="#999A9E"/>
</linearGradient>
<linearGradient id="paint9_linear_144_692" x1="472.5" y1="233.166" x2="472.5" y2="991.545" gradientUnits="userSpaceOnUse">
<stop stop-color="#FDFDFD"/>
<stop offset="0.6979" stop-color="#F9FAFA"/>
<stop offset="1" stop-color="#F5F6F6"/>
</linearGradient>
<linearGradient id="paint10_linear_144_692" x1="472.5" y1="864.385" x2="472.5" y2="877.738" gradientUnits="userSpaceOnUse">
<stop stop-color="#CACBD0"/>
<stop offset="0.238" stop-color="#C7C8CD"/>
<stop offset="0.4027" stop-color="#BFC0C4"/>
<stop offset="0.5453" stop-color="#B0B1B5"/>
<stop offset="0.6753" stop-color="#9B9C9F"/>
<stop offset="0.7968" stop-color="#808083"/>
<stop offset="0.9103" stop-color="#5F6061"/>
<stop offset="1" stop-color="#404040"/>
</linearGradient>
</defs>
</svg>
