<svg width="199" height="256" viewBox="0 0 199 256" fill="none" xmlns="http://www.w3.org/2000/svg">
<path d="M37.4031 243.645C37.4031 243.645 31.0427 246.317 31.1648 255.261C31.1729 255.872 31.9296 256.077 32.535 255.869C33.8811 255.405 39.0365 252.352 40.5873 246.867L41.2702 244.061L42.3099 240.426L38.9356 241.262L38.4523 243.028L37.4031 243.645Z" fill="#251818"/>
<path d="M75.2201 241.551C75.2201 241.551 81.4167 247.146 89.2299 249.299C89.2299 249.299 90.0765 250.515 85.2926 250.515C73.9091 250.515 72.8358 245.814 72.8358 245.814V247.928H70.4763V242.148L75.2201 241.551Z" fill="#251818"/>
<path d="M75.7313 125.842C74.4211 126.285 73.0823 126.565 71.5542 126.66C68.7348 126.836 65.8541 126.714 63.0267 126.695C58.7033 126.666 54.6636 126.168 50.5896 125.451C50.5896 125.451 44.2373 130.165 39.0673 142.912C37.1304 147.687 41.6446 170.364 40.4265 188.796C40.1362 193.192 34.4127 200.566 35.7017 243.631L42.4789 244.355C42.4789 244.355 49.9996 225.59 52.166 203.593C52.9754 195.377 53.5545 192.707 54.1891 187.356C54.9437 180.999 59.6209 160.257 60.3075 152.607C60.3389 152.254 60.8792 152.245 60.9231 152.597C61.8773 160.342 64.5533 179.357 64.0071 187.443C63.7278 191.572 61.9562 195.009 63.1627 204.203C64.9547 217.867 68.6712 242.258 68.6712 242.258H77.361C77.361 242.258 78.3854 204.105 77.992 187.906C77.3311 160.749 87.1462 140.079 75.7313 125.842Z" fill="#54352E"/>
<path opacity="0.65" d="M63.0702 146.187C63.0702 146.187 69.7165 149.995 81.0626 149.995C81.8142 139.865 80.9025 132.292 75.731 125.842C74.4207 126.285 73.082 126.565 71.5539 126.66C68.7345 126.836 65.8537 126.714 63.0263 126.695C58.703 126.666 54.6633 126.167 50.5893 125.451C50.5893 125.451 44.237 130.165 39.067 142.912C38.7145 143.78 38.5098 145.588 38.7738 147.859C39.8471 148.247 52.9839 151.328 63.0702 146.187Z" fill="#54352E"/>
<path d="M78.4283 58.868C78.4283 58.868 72.4773 58.5809 70.9309 48.9517C65.3485 49.1618 59.1315 45.8869 54.4923 43.0543C53.9263 48.1557 52.7119 57.4063 50.2874 60.0156C50.2874 60.0156 55.0282 83.6425 64.711 87.8514C74.393 92.0596 93.2547 77.4247 78.4283 58.868Z" fill="#FFB87F"/>
<path d="M62.5175 54.426C65.6308 52.9664 69.0014 52.7646 72.2426 53.5364C71.6921 52.3098 71.2285 50.8065 70.9309 48.9509C65.3485 49.161 59.1315 45.8861 54.4923 43.0536C53.9263 48.1549 52.7119 57.4056 50.2874 60.0148C50.2874 60.0148 50.6551 61.8454 51.3929 64.5746H58.1386C57.3094 61.0369 58.8917 56.1262 62.5175 54.426Z" fill="#F39F6D"/>
<path d="M72.4095 55.7112C72.4095 55.7112 68.8459 62.7894 52.5059 57.0501L49.2786 64.5111L67.1649 93.3988L83.9129 72.6738L72.4095 55.7112Z" fill="#F9F0C7"/>
<path d="M63.3993 59.6011L67.972 59.027L69.922 64.7031L67.5011 68.0828L72.4094 74.842L68.8457 86.3206L62.3611 76.2663L65.5555 68.2423L61.9202 65.3723L63.3993 59.6011Z" fill="#AE1917"/>
<path d="M52.237 55.1367L49.0886 59.0267L55.0615 66.575L63.1306 67.4439L65.3496 59.2812C65.3496 59.2812 58.6924 58.7722 52.237 55.1367Z" fill="#FBF9F4"/>
<path d="M72.523 54.1272L65.3496 59.2819L70.2586 65.9143L78.0586 59.2819L72.523 54.1272Z" fill="#FBF9F4"/>
<path d="M139.531 81.7714C139.531 81.7714 143.868 79.5304 146.404 76.8282C148.16 74.956 149.244 73.0956 149.755 72.4577C151.205 70.6458 153.145 68.9629 154.059 68.3326C154.972 67.7023 167.484 62.108 168.937 64.7471C168.937 64.7471 169.934 67.0311 157.933 71.0092C157.933 71.0092 163.531 75.1772 162.619 77.6221C162.426 78.1401 161.481 79.7682 159.824 80.3139C156.315 81.4691 152.609 81.5793 151.251 82.4953C150.116 83.2608 145.92 86.0726 145.92 86.0726C145.92 86.0726 140.434 84.9916 139.531 81.7714Z" fill="#FFB87F"/>
<path d="M153.064 79.9122C152.895 79.6591 152.785 79.4934 152.72 79.3838C152.501 79.3208 152.283 79.257 152.065 79.1952C149.958 78.5719 148.011 77.9235 146.514 76.7039C146.476 76.7455 146.441 76.7864 146.403 76.8273C143.868 79.5295 139.53 81.7712 139.53 81.7712C140.433 84.9907 145.919 86.0724 145.919 86.0724C145.919 86.0724 150.116 83.2606 151.25 82.4951C151.873 82.0749 152.994 81.8239 154.361 81.5639C153.892 81.057 153.461 80.5072 153.064 79.9122Z" fill="#F39F6D"/>
<path d="M161.792 78.0046C159.028 78.6245 156.629 78.343 154.549 80.5577C154.158 80.973 153.747 81.3717 153.338 81.7711C155.095 81.3849 157.5 81.0777 159.823 80.3129C161.348 79.8109 162.262 78.4033 162.55 77.7758C162.308 77.8687 162.056 77.9456 161.792 78.0046Z" fill="#F39F6D"/>
<path d="M165.791 64.1364C163.542 64.9525 161.448 65.8345 159.492 67.3732C158.666 68.0229 156.262 68.9451 155.393 69.5102C154.469 70.1114 153.483 71.5357 152.609 72.193C153.144 72.0245 155.302 70.7126 155.933 70.6724C156.403 70.6426 156.88 70.7195 157.339 70.8714C157.643 70.8423 157.952 70.852 158.257 70.8984C169.907 66.989 168.937 64.7466 168.937 64.7466C168.529 64.006 167.325 63.8986 165.791 64.1364Z" fill="#F39F6D"/>
<path d="M140.532 80.5809L144.191 77.2013L150.177 83.7976L146.097 86.7348L140.532 80.5809Z" fill="#FBF9F4"/>
<path d="M85.791 62.5344C85.791 62.5344 84.1774 85.8742 89.1529 96.7148C94.1292 107.555 104.35 119.162 109.326 116.484C114.302 113.805 146.729 87.0683 146.729 87.0683L140.812 79.7203C140.812 79.7203 110.604 97.4166 108.99 97.0338C107.686 96.7246 99.6502 73.2571 90.8777 64.7914L85.791 62.5344Z" fill="#783C28"/>
<path opacity="0.18" d="M107.621 108.262C98.5895 106.371 95.4659 86.0244 92.9917 78.492C91.563 74.1437 86.246 90.3824 89.1524 96.7152C94.1286 107.556 104.35 119.162 109.325 116.484C111.63 115.243 119.83 108.837 127.965 102.319C127.997 102.294 127.973 102.243 127.935 102.256C125.887 102.972 112.037 109.187 107.621 108.262Z" fill="#62260F"/>
<path d="M76.028 57.8153C76.028 57.8153 90.4253 64.4178 90.8771 64.7916C91.329 65.1653 96.654 87.7778 88.2976 99.1904C81.8495 107.997 79.5375 118.212 80.344 126.981C81.1512 135.751 83.9157 143.889 83.9157 143.889C83.9157 143.889 68.2375 150.545 62.6653 141.204C62.6653 141.204 71.4685 104.461 67.8368 82.302C67.8368 82.302 74.1116 72.8919 76.028 57.8153Z" fill="#672C16"/>
<path opacity="0.25" d="M83.1992 108.34C78.7523 114.039 74.2403 117.916 66.9075 117.983C65.1249 130.936 62.6653 141.205 62.6653 141.205C68.2375 150.545 83.9157 143.889 83.9157 143.889C83.9157 143.889 81.1512 135.751 80.344 126.982C79.9448 122.647 80.2577 118.922 81.1454 114.953C81.6564 112.666 82.1631 110.933 83.1992 108.34Z" fill="#62260F"/>
<path d="M67.8374 80.9639C67.8374 80.9639 74.8053 63.6005 75.848 57.2233L80.2218 59.768C80.2218 59.768 81.959 66.6154 81.7572 67.4447C81.5554 68.2733 77.1173 69.8043 77.1173 69.8043C77.1173 69.8043 81.9853 71.5288 82.1104 71.7812C82.8328 73.247 71.238 85.5535 68.9239 88.0428C68.9239 88.0428 66.8957 86.1928 67.8374 80.9639Z" fill="#783C28"/>
<path opacity="0.22" d="M68.2982 82.9183C70.5663 105.228 62.0161 140.566 62.0161 140.566C62.805 141.888 63.8082 142.958 64.8932 143.752C70.7864 136.262 69.7796 126.437 70.6614 115.107C71.2258 107.859 71.4795 86.3319 68.2982 82.9183Z" fill="#510900"/>
<path d="M49.2787 58.7931C49.2787 58.7931 33.7599 64.4679 27.1663 66.5758C27.1663 66.5758 37.1751 81.5935 34.956 95.4559C34.956 95.4559 47.9619 107.913 47.1525 120.299C46.6436 128.09 36.1069 141.428 36.1069 141.428C36.1069 141.428 58.0622 154.149 66.1225 138.054C69.73 130.85 70.5365 89.2493 68.9228 84.089C67.3092 78.928 49.5208 59.2986 49.2787 58.7931Z" fill="#672C16"/>
<path opacity="0.25" d="M65.7247 117.964C59.5354 117.601 54.4904 115.147 51.2565 110C47.9348 104.713 45.8554 98.8699 42.7999 93.46C39.9739 88.4565 36.7473 83.9265 33.2056 79.4146C34.7878 84.2704 35.8363 89.9528 34.9552 95.4563C34.9552 95.4563 47.9611 107.913 47.1517 120.299C46.6428 128.09 36.1061 141.428 36.1061 141.428C36.1061 141.428 58.0614 154.15 66.1217 138.055C67.5445 135.213 68.5316 127.018 69.1063 117.819C68.0146 117.971 66.8894 118.032 65.7247 117.964Z" fill="#62260F"/>
<path d="M67.5823 91.5506C67.5823 92.2883 67.1092 92.8861 66.5258 92.8861C65.9423 92.8861 65.4692 92.2883 65.4692 91.5506C65.4692 90.8135 65.9423 90.2151 66.5258 90.2151C67.11 90.2158 67.5823 90.8135 67.5823 91.5506Z" fill="#854E3C"/>
<path d="M67.5823 109.597C67.5823 110.334 67.1092 110.932 66.5258 110.932C65.9423 110.932 65.4692 110.335 65.4692 109.597C65.4692 108.859 65.9423 108.261 66.5258 108.261C67.11 108.261 67.5823 108.859 67.5823 109.597Z" fill="#854E3C"/>
<path d="M66.1201 128.83C66.1201 129.568 65.6471 130.166 65.0636 130.166C64.4801 130.166 64.0071 129.568 64.0071 128.83C64.0071 128.093 64.4801 127.495 65.0636 127.495C65.6471 127.495 66.1201 128.093 66.1201 128.83Z" fill="#854E3C"/>
<path d="M50.0696 57.8153L47.1267 59.537C47.1267 59.537 46.0256 66.193 46.631 66.8309C47.2364 67.4688 52.4086 69.1662 52.4086 69.1662C52.4086 69.1662 47.4564 71.996 47.5822 72.9286C47.7591 74.2364 67.5685 85.4278 69.4512 90.593C69.4512 90.593 70.3162 86.8653 68.644 82.2549C66.3789 76.0094 58.9656 67.4459 50.0696 57.8153Z" fill="#783C28"/>
<path d="M30.698 99.4705L37.0423 133.645L62.0158 129.054L57.1894 94.6542L30.698 99.4705Z" fill="#B69B75"/>
<path d="M60.0658 116.329L59.3814 111.866C58.3022 112.55 57.1141 113.085 55.9567 113.639C54.0286 114.559 53.0635 115.596 54.6011 117.446C56.1504 119.311 58.2503 117.961 60.0658 116.329Z" fill="#888888"/>
<path d="M31.8154 100.227L36.9548 131.748L60.3738 127.565L55.8399 95.8591L31.8154 100.227Z" fill="#E1D6C7"/>
<path d="M48.7755 104.373C46.1769 102.927 44.836 101.131 43.498 98.6068C43.4161 98.4522 43.3305 98.3017 43.2472 98.1492L30.8503 100.29L36.6901 131.749L60.3731 127.566L57.3417 106.365C54.3696 106.556 51.1861 105.714 48.7755 104.373Z" fill="#CFBDA4"/>
<path opacity="0.65" d="M58.5649 109.277C58.5576 109.275 58.5495 109.274 58.5422 109.272C57.1435 108.924 55.6549 109.212 54.4733 110.003C51.4061 112.058 50.2421 110.929 47.1507 112.888C44.8914 114.321 35.5487 108.196 32.3484 108.343L35.7578 126.409C37.2771 126.229 42.252 125.839 46.1534 124.922C48.2584 124.427 53.6434 126.203 55.7821 125.815C57.6348 125.48 59.4832 124.953 61.2848 124.341L59.2704 109.73C59.1783 109.789 58.9495 109.648 58.5649 109.277Z" fill="#CFBDA4"/>
<path d="M36.4967 104.372L35.5616 104.53L35.3766 104.183L34.4129 104.346L34.3661 104.733L33.4631 104.886L33.9757 102.108L35.003 101.934L36.4967 104.372ZM34.6037 102.753L34.4868 103.731L35.0819 103.631L34.6191 102.75L34.6037 102.753Z" fill="#FBF9F4"/>
<path d="M36.829 104.316L36.3376 101.708L37.2216 101.558L37.5872 103.5L38.9983 103.26L39.1241 103.927L36.829 104.316Z" fill="#FBF9F4"/>
<path d="M41.8949 101.741L41.0511 101.884C41.0087 101.66 40.7426 101.561 40.4625 101.608C40.0429 101.68 39.8732 101.939 39.9442 102.319L39.9902 102.561C40.0619 102.94 40.3156 103.128 40.7353 103.057C41.0153 103.01 41.2295 102.832 41.19 102.624L40.5664 102.729L40.4662 102.198L41.9336 101.95L42.2078 103.406L41.7516 103.483L41.6149 103.24C41.405 103.484 41.1082 103.639 40.6885 103.71C39.7731 103.865 39.2305 103.483 39.0631 102.593C38.8957 101.702 39.3563 101.15 40.3083 100.989C41.0811 100.858 41.7713 101.086 41.8949 101.741Z" fill="#FBF9F4"/>
<path d="M42.756 103.313L42.2646 100.704L44.6431 100.302L44.7608 100.927L43.2656 101.18L43.3336 101.541L44.6131 101.324L44.7257 101.923L43.4462 102.139L43.5215 102.538L45.0445 102.28L45.1622 102.905L42.756 103.313Z" fill="#FBF9F4"/>
<path d="M46.981 99.9056C47.397 99.8348 47.7904 100.042 47.8613 100.417C47.9329 100.797 47.7509 100.992 47.5154 101.102L47.5184 101.118C47.8138 101.13 48.0865 101.264 48.1647 101.681C48.243 102.099 47.9395 102.435 47.4957 102.51L45.6408 102.824L45.1494 100.216L46.981 99.9056ZM46.1416 100.639L46.225 101.083L46.8325 100.98C46.9488 100.961 47.019 100.855 46.9978 100.74L46.9905 100.702C46.97 100.593 46.8603 100.517 46.7485 100.537L46.1416 100.639ZM46.3266 101.621L46.4107 102.068L47.0826 101.955C47.1989 101.935 47.2698 101.833 47.2478 101.715L47.2405 101.677C47.2193 101.563 47.114 101.488 46.9985 101.507L46.3266 101.621Z" fill="#FBF9F4"/>
<path d="M50.6241 100.853L51.4415 101.841L50.4501 102.009L49.7825 101.14L49.455 101.196L49.6341 102.147L48.7509 102.297L48.2595 99.6884L49.9427 99.4034C50.5539 99.3001 50.9407 99.6211 51.0211 100.047C51.0774 100.35 50.956 100.668 50.6241 100.853ZM49.8344 100.036L49.2554 100.135L49.346 100.616L49.9258 100.518C50.0618 100.495 50.1547 100.373 50.1276 100.233C50.1006 100.093 49.9704 100.013 49.8344 100.036Z" fill="#FBF9F4"/>
<path d="M54.6381 101.301L53.7029 101.459L53.5172 101.111L52.5535 101.273L52.5067 101.661L51.6038 101.814L52.1156 99.0359L53.1428 98.8618L54.6381 101.301ZM52.7451 99.68L52.6281 100.658L53.2233 100.558L52.7612 99.6773L52.7451 99.68Z" fill="#FBF9F4"/>
<path d="M54.8996 102.53L33.6973 105.915L33.8186 106.599L55.021 103.214L54.8996 102.53Z" fill="#FBF9F4"/>
<path d="M45.7129 122.29C45.7129 122.29 52.2904 124.766 53.0852 125.11C54.462 125.706 54.606 125.24 60.8245 123.632C61.0673 123.57 61.2347 123.356 61.2259 123.118C61.2084 122.67 61.1053 121.973 60.6571 121.623C60.6571 121.623 63.0838 120.756 62.3285 119.815C61.9797 119.38 61.4928 118.879 61.4928 118.879C61.4928 118.879 62.6363 118.427 62.6656 117.654C62.6853 117.139 61.8635 116.441 61.1192 116.084C61.1192 116.084 62.088 115.288 61.9988 114.68C61.9512 114.357 61.6193 113.504 59.6832 112.436C59.6832 112.436 59.7899 113.131 59.8733 113.676C59.8733 113.676 59.4624 114.891 57.2199 116.211C56.208 116.807 55.3671 116.452 55.7415 115.638C56.2292 114.576 56.9048 115.001 58.4958 113.581C59.9018 112.325 60.4085 110.307 59.4419 109.777C57.8545 108.906 56.431 111.442 55.6048 112.082C53.8354 113.453 50.4815 114.317 50.0523 114.765C49.3453 115.503 48.0665 117.219 46.2262 116.959L45.7129 122.29Z" fill="#FFB87F"/>
<path d="M57.6744 115.928C57.5311 116.022 57.382 116.116 57.2196 116.212C56.3269 116.738 55.5701 116.522 55.6608 115.905C55.5833 115.909 55.5153 115.926 55.4342 115.926C53.7605 115.926 52.7215 114.949 52.3253 113.77C51.2132 114.213 50.2663 114.542 50.0521 114.766C49.345 115.503 48.0662 117.22 46.2259 116.96L45.7126 122.291C45.7126 122.291 52.2902 124.767 53.0849 125.111C54.0698 125.537 54.4354 125.417 56.8329 124.727C56.838 124.686 56.8329 124.649 56.8402 124.608C57.2401 122.193 58.2381 119.831 57.9354 117.326C57.8828 116.884 57.7892 116.411 57.6744 115.928Z" fill="#F39F6D"/>
<path d="M59.873 113.676C59.873 113.676 59.4621 114.891 57.2196 116.212C56.2077 116.807 55.3669 116.452 55.7412 115.638C56.2289 114.577 56.9045 115.001 58.4955 113.581C59.9015 112.326 60.4082 110.307 59.4416 109.777C59.0651 109.57 58.6988 109.56 58.3464 109.666C59.2983 110.088 59.4102 110.834 59.2077 111.512C58.973 112.298 58.1365 113.165 57.3081 113.568C55.9935 114.206 55.1417 114.925 54.9691 115.87C55.8648 116.273 56.5682 117.627 55.9935 118.434C56.9528 118.913 57.167 120.002 56.4914 121.014C56.9477 121.404 56.6896 122.862 55.875 123.202C55.875 123.202 56.0425 124.725 54.0545 124.725C53.2436 124.725 47.738 122.144 45.7514 121.886L45.7126 122.291C45.7126 122.291 52.2902 124.767 53.0849 125.111C54.4617 125.706 56.5221 125.358 60.8243 123.632C61.056 123.539 61.2344 123.356 61.2257 123.118C61.2081 122.67 61.105 121.973 60.6568 121.624C60.6568 121.624 63.0835 120.756 62.3283 119.815C61.9795 119.38 61.4925 118.879 61.4925 118.879C61.4925 118.879 62.6361 118.427 62.6653 117.654C62.6851 117.139 61.8632 116.441 61.1189 116.084C61.1189 116.084 62.0877 115.289 61.9985 114.681C61.951 114.357 61.619 113.504 59.6829 112.436C59.6829 112.436 59.7897 113.132 59.873 113.676Z" fill="#FFB87F"/>
<path d="M61.494 116.293C61.3755 116.22 61.2564 116.152 61.1379 116.094C60.738 116.175 57.7994 117.582 56.8796 118.009C57.0186 118.106 60.3132 116.946 61.494 116.293Z" fill="#D8733A"/>
<path d="M61.7826 119.181C61.6641 119.109 61.6115 118.936 61.493 118.878C61.0931 118.959 58.088 120.472 57.1682 120.898C57.3071 120.995 60.6017 119.835 61.7826 119.181Z" fill="#D8733A"/>
<path d="M60.9039 121.896C60.9039 121.896 60.7921 121.688 60.6787 121.633C60.2971 121.71 58.3149 122.787 57.4368 123.194C57.5691 123.286 59.7765 122.52 60.9039 121.896Z" fill="#D8733A"/>
<path d="M57.118 111.881C56.3905 111.089 57.9749 109.869 58.0656 109.865C58.0656 109.865 58.9919 109.945 59.03 111.087C58.7982 111.53 58.5306 111.703 58.2527 111.88C57.7563 112.196 57.3293 112.111 57.118 111.881Z" fill="#FFDDC4"/>
<path d="M44.0666 116.094L47.5301 116.324L46.3574 122.988L42.7893 122.478L44.0666 116.094Z" fill="#FBF9F4"/>
<path d="M34.9558 95.4559C34.9558 95.4559 41.3205 76.5878 27.166 66.5758C27.166 66.5758 15.9632 78.2977 8.13684 92.4181C5.4118 97.335 -2.83422 112.785 0.998518 116.095C5.08863 119.626 12.0602 121.768 43.5294 123.203L44.8542 115.505C44.8542 115.505 17.6076 109.279 17.7421 107.366C17.8759 105.451 34.9558 95.4559 34.9558 95.4559Z" fill="#783C28"/>
<path opacity="0.18" d="M17.6449 107.224C17.6917 107.215 17.7429 107.211 17.7904 107.202C18.7285 104.953 34.9552 95.4554 34.9552 95.4554C34.9552 95.4554 38.1123 86.0702 35.0122 77.0255C32.3486 93.3994 15.4251 101.901 17.6449 107.224Z" fill="#62260F"/>
<path d="M68.8523 51.0777C72.7654 50.9328 76.8453 50.2262 78.8384 46.8549C80.0719 44.7685 82.068 41.8507 82.3378 39.4418C82.4979 38.0078 82.0526 36.5066 81.6293 35.0228C79.9184 32.8795 77.2145 21.6193 76.8775 19.6106C76.4629 17.1421 76.615 13.6016 75.5139 11.3196C73.8958 7.96631 70.0806 8.67081 66.2574 7.52531C63.4439 6.68283 59.1512 6.15377 56.8488 8.26864C56.1257 8.93291 55.5707 9.93418 54.7167 10.466C53.9278 10.9576 53.0409 10.9521 52.3156 11.5422C50.7129 12.8451 49.252 14.4662 48.8835 16.4924C48.4916 18.6461 46.0832 21.7518 46.5394 23.8396C47.3145 27.385 52.154 40.156 53.9541 42.9913C55.9414 46.122 59.432 48.4019 63.0066 49.6368C64.9362 50.3039 66.881 50.8572 68.8523 51.0777Z" fill="#FFB87F"/>
<path d="M56.2977 35.2031C54.3053 32.1001 50.8404 25.9268 51.4385 22.2407C52.5169 15.591 61.2221 14.9031 63.5808 14.5218C67.5328 13.8831 72.6816 11.4812 76.5918 16.9445C76.431 14.9732 76.2592 12.8611 75.5148 11.3196C73.8968 7.96705 70.0816 8.67085 66.2583 7.52604C63.4448 6.68356 59.1522 6.1545 56.8498 8.26937C56.1266 8.93364 55.5717 9.93492 54.7177 10.4668C53.9288 10.9584 53.0419 10.9528 52.3166 11.5429C50.7139 12.8458 49.253 14.467 48.8845 16.4931C48.4926 18.6468 46.0842 21.7525 46.5404 23.8403C47.0888 26.3498 49.6727 33.4772 51.7748 38.435C54.0114 38.4322 56.229 38.5681 58.443 38.7006C57.6635 37.562 57.0121 36.316 56.2977 35.2031Z" fill="#F39F6D"/>
<path d="M50.2021 11.3605C53.2014 14.5432 54.0597 15.9383 57.3529 14.3171C59.0258 13.4934 65.1946 12.0601 67.0422 11.7398C68.7466 11.4444 70.2462 11.2884 72.2634 11.7661C73.7419 12.1163 75.561 12.6412 76.4157 15.2574C78.6765 12.5663 76.6592 9.33713 75.1786 8.28246C73.9685 7.42057 68.9842 7.84632 67.4458 7.71457C65.46 7.54469 63.6007 9.82112 62.3021 10.9694C60.9217 12.1898 59.5383 10.1969 57.7675 10.9091C55.5096 11.8153 52.3349 12.6807 50.2021 11.3605Z" fill="#391C17"/>
<path d="M69.2947 1.88172C63.9097 -2.08799 57.5245 1.00596 53.12 3.98133C51.1612 5.30434 45.861 12.1912 44.6897 13.673C48.1803 17.0478 54.5063 16.6435 58.766 14.2C60.8264 13.0177 62.5965 11.5942 64.4193 10.1054C65.7398 9.0272 67.5999 8.17987 69.4621 8.64444C76.5493 10.4112 76.5639 16.6227 76.5639 16.6227C78.655 16.3259 82.392 12.7327 81.0532 8.9017C79.5836 4.69276 75.9929 6.81942 69.2947 1.88172Z" fill="#4F3D37"/>
<path d="M67.5822 0.8804C65.4933 -0.0875857 63.3071 -0.1597 61.1817 0.270901C60.6808 1.33735 59.799 2.72137 59.9518 3.78089C60.226 5.6815 60.468 7.29088 59.9029 9.16167C59.7581 9.6422 59.5139 10.1213 59.2017 10.5713C58.5334 11.5359 58.306 12.7126 58.5758 13.838C58.6087 13.9746 58.6409 14.1118 58.673 14.2484C58.676 14.2498 58.676 14.2498 58.6789 14.2512C60.7766 13.06 62.5701 11.6163 64.4192 10.1075C64.556 9.99583 64.6978 9.88766 64.8455 9.78226C65.9561 8.99179 66.6171 7.77279 66.574 6.45672C66.5732 6.43245 66.5725 6.40818 66.5718 6.38391C66.5177 4.43199 66.8752 2.64233 67.5822 0.8804Z" fill="#776965"/>
<path d="M49.9704 26.3225C49.9002 28.1163 54.5789 34.9782 56.7768 36.7914C58.6061 38.3003 61.4467 42.3615 57.4524 44.2892C54.5972 45.6669 48.998 43.9716 46.5398 42.3761C42.5806 39.8063 41.2192 37.2643 40.8177 33.8306C40.6254 32.1873 41.274 17.0504 42.098 15.4646C43.9866 11.8318 50.2015 8.31145 52.1909 15.2572C51.6872 14.0264 50.1305 22.2404 49.9704 26.3225Z" fill="#4F3D37"/>
<path d="M56.7764 36.7909C54.7394 35.1108 50.5791 29.1018 50.0351 26.8018C49.3537 27.0826 48.6335 27.3031 47.8585 27.4438C45.5817 27.8578 43.1783 27.7164 40.9512 27.0611C40.7999 30.327 40.7414 33.1699 40.8181 33.8307C41.2196 37.2638 42.5802 39.8065 46.5402 42.3762C48.9984 43.9717 54.5976 45.6671 57.4528 44.2893C61.4464 42.3609 58.6058 38.2997 56.7764 36.7909Z" fill="#776965"/>
<path opacity="0.65" d="M56.0418 40.1339C54.7016 39.012 52.8737 38.772 51.793 37.2993C51.5503 36.9678 51.3061 36.4908 51.0414 35.986C50.5866 37.3416 49.0629 36.9449 48.989 37.1959C48.5759 38.5973 47.8696 38.935 48.7572 43.4899C51.5152 44.6042 55.2777 45.3385 57.4522 44.2887C59.2955 43.3991 59.6742 42.0553 59.3773 40.717C58.3457 41.1116 57.1188 41.0353 56.0418 40.1339Z" fill="#4F3D37"/>
<path d="M80.1861 31.9198C77.5291 33.6803 73.7738 34.701 71.0766 34.9784C67.9735 35.2973 63.4952 34.6927 60.3702 34.8702C57.7205 35.0214 52.7969 36.8755 52.5176 36.9872C52.3742 48.9032 65.1403 51.8037 67.6474 52.0048C73.4733 52.4735 81.5168 50.4502 83.9545 44.7928C85.8351 40.4278 82.8753 35.4215 80.1861 31.9198Z" fill="#776965"/>
<path d="M61.595 37.211C61.595 37.211 71.6835 40.1711 77.1277 35.0774C77.1277 35.0774 77.7807 42.58 70.8134 42.7866C63.8448 42.9932 61.595 37.211 61.595 37.211Z" fill="#CC3333"/>
<path d="M76.4304 35.6615C71.8724 39.1576 64.8255 37.965 62.4287 37.42C62.5823 37.8214 62.7102 38.1855 62.765 38.4753C62.7797 38.5523 62.7841 38.6292 62.798 38.7062C63.9883 39.7519 66.2227 40.9424 70.1958 40.8252C74.185 40.7067 75.874 38.8421 76.5928 37.2674C76.5613 36.7259 76.5057 36.1913 76.4304 35.6615Z" fill="#FBF9F4"/>
<path d="M52.3283 37.7769C52.3283 37.7769 50.7256 31.5925 49.9235 30.4865C49.1221 29.3812 46.0981 27.2733 44.7864 31.4538C43.4747 35.6343 47.4829 39.7469 52.3283 37.7769Z" fill="#FFB87F"/>
<path d="M46.208 31.5924C46.208 31.5924 47.8839 30.4178 48.9404 31.2471C49.9969 32.0764 52.5106 37.0169 50.7617 37.1896C49.0128 37.3622 47.8502 37.1202 48.2494 35.0477C48.6486 32.9744 48.7247 32.5126 48.2494 32.3053C47.7749 32.0979 45.4476 32.2401 46.208 31.5924Z" fill="#EF9261"/>
<path d="M62.3113 16.0369C62.7383 15.98 63.1302 16.2546 63.1946 16.6588C63.3722 17.7745 63.5762 19.8443 62.6696 19.9844C61.4244 20.1765 57.2188 20.1737 53.2405 22.9473C53.2405 22.9473 52.3368 21.3643 54.4916 19.1551C56.3787 17.2198 60.2516 16.3094 62.3113 16.0369Z" fill="#4F3D37"/>
<path d="M69.9948 15.591C69.7359 15.5862 69.5246 15.7803 69.5056 16.0251C69.4245 17.0527 69.3813 19.5254 70.8729 19.2563C71.8987 19.0712 76.1914 19.1607 77.9944 19.5476C78.058 19.5614 77.4848 17.3433 74.419 16.2567C73.4619 15.9169 71.6055 15.6195 69.9948 15.591Z" fill="#4F3D37"/>
<path d="M78.8958 30.5084C79.0193 31.6768 77.606 32.7675 75.7386 32.9457C73.8712 33.1239 72.2568 32.3216 72.1333 31.1532C72.0097 29.9849 73.423 28.8941 75.2904 28.7159C77.1571 28.5377 78.7715 29.34 78.8958 30.5084Z" fill="url(#paint0_radial_151_1806)"/>
<path d="M65.4766 32.2879C65.4246 33.649 63.6194 34.6919 61.4435 34.6177C59.2676 34.5435 57.5457 33.38 57.5976 32.0188C57.6495 30.6577 59.4547 29.6148 61.6307 29.6897C63.8066 29.7632 65.5277 30.9267 65.4766 32.2879Z" fill="url(#paint1_radial_151_1806)"/>
<mask id="mask0_151_1806" style="mask-type:luminance" maskUnits="userSpaceOnUse" x="56" y="23" width="9" height="6">
<path d="M56.2812 26.7419C56.2812 26.7419 57.2815 23.7235 60.8729 23.7235C64.4644 23.7235 64.4578 27.0865 64.4578 27.0865C64.4578 27.0865 63.1739 29.4434 59.63 28.811C56.8399 28.3131 56.2812 26.7419 56.2812 26.7419Z" fill="white"/>
</mask>
<g mask="url(#mask0_151_1806)">
<path d="M56.2812 26.7416C56.2812 26.7416 57.2815 23.7233 60.8729 23.7233C64.4644 23.7233 64.4578 27.0863 64.4578 27.0863C64.4578 27.0863 63.1739 29.4431 59.63 28.8107C56.8399 28.3129 56.2812 26.7416 56.2812 26.7416Z" fill="#FFFFF6"/>
</g>
<mask id="mask1_151_1806" style="mask-type:luminance" maskUnits="userSpaceOnUse" x="56" y="23" width="9" height="6">
<path d="M56.2812 26.7419C56.2812 26.7419 57.2815 23.7235 60.8729 23.7235C64.4644 23.7235 64.4578 27.0865 64.4578 27.0865C64.4578 27.0865 63.1739 29.4434 59.63 28.811C56.8399 28.3131 56.2812 26.7419 56.2812 26.7419Z" fill="white"/>
</mask>
<g mask="url(#mask1_151_1806)">
<path d="M62.7793 26.6897C62.7793 28.1784 61.5824 29.3856 60.1055 29.3856C58.6285 29.3856 57.4316 28.1784 57.4316 26.6897C57.4316 25.201 58.6285 23.9938 60.1055 23.9938C61.5824 23.9938 62.7793 25.201 62.7793 26.6897Z" fill="url(#paint2_radial_151_1806)"/>
</g>
<path d="M60.4728 25.0874C63.2256 25.0874 64.2368 27.015 64.4568 27.0906L64.459 27.0871C64.459 27.0871 64.6842 23.5771 60.3704 23.5771C56.7789 23.5771 56.2817 26.7418 56.2817 26.7418C56.2817 26.7418 56.2839 26.7481 56.2883 26.7599C56.5238 26.6725 57.8669 25.0874 60.4728 25.0874Z" fill="#3D2E29"/>
<mask id="mask2_151_1806" style="mask-type:luminance" maskUnits="userSpaceOnUse" x="71" y="22" width="7" height="6">
<path d="M71.0239 25.115C71.0239 25.115 71.8655 22.2408 74.8888 22.2408C77.9115 22.2408 77.9063 25.4437 77.9063 25.4437C77.9063 25.4437 76.8257 27.6882 73.8425 27.0856C71.4941 26.6113 71.0239 25.115 71.0239 25.115Z" fill="white"/>
</mask>
<g mask="url(#mask2_151_1806)">
<path d="M71.0239 25.1149C71.0239 25.1149 71.8655 22.2407 74.8888 22.2407C77.9115 22.2407 77.9063 25.4435 77.9063 25.4435C77.9063 25.4435 76.8257 27.6881 73.8425 27.0855C71.4941 26.6112 71.0239 25.1149 71.0239 25.1149Z" fill="#FFFFF6"/>
</g>
<mask id="mask3_151_1806" style="mask-type:luminance" maskUnits="userSpaceOnUse" x="71" y="22" width="7" height="6">
<path d="M71.0239 25.115C71.0239 25.115 71.8655 22.2408 74.8888 22.2408C77.9115 22.2408 77.9063 25.4437 77.9063 25.4437C77.9063 25.4437 76.8257 27.6882 73.8425 27.0856C71.4941 26.6113 71.0239 25.115 71.0239 25.115Z" fill="white"/>
</mask>
<g mask="url(#mask3_151_1806)">
<path d="M76.2365 25.1579C76.2365 26.4102 75.2509 27.426 74.0343 27.426C72.8184 27.426 71.832 26.4109 71.832 25.1579C71.832 23.9056 72.8176 22.8905 74.0343 22.8905C75.2509 22.8905 76.2365 23.9056 76.2365 25.1579Z" fill="url(#paint3_radial_151_1806)"/>
</g>
<path d="M74.2951 23.4776C76.5778 23.4776 77.7213 25.3658 77.9063 25.4399C77.9063 25.4046 77.8946 22.2406 74.8888 22.2406C71.8655 22.2406 71.0239 25.1147 71.0239 25.1147C71.0239 25.1147 71.032 25.1362 71.0364 25.1473C71.233 25.0683 72.0878 23.4776 74.2951 23.4776Z" fill="#3D2E29"/>
<path d="M77.9348 20.8024C77.6343 20.7108 72.4731 21.3224 70.5932 21.8716C70.2364 21.9756 70.0112 22.3764 70.0865 22.7917C70.1136 22.9436 70.148 23.1225 70.186 23.3132C68.1885 22.4242 66.5558 23.5878 66.0403 24.0281C65.723 23.0219 65.3888 22.255 65.1863 22.2107C64.7491 22.1157 57.1216 22.9887 54.5223 23.6626C54.0347 23.7888 53.7524 24.2368 53.8862 24.6889C54.3549 26.2698 55.5226 30.1924 55.6505 30.4725C56.0088 31.254 66.5229 30.1716 66.8248 28.7342C66.9791 27.9992 66.6837 26.3406 66.2882 24.8789C66.7561 24.5557 67.7768 23.9012 68.5548 23.7687C69.2523 23.6502 69.9783 24.0378 70.3878 24.3096C70.7292 25.9467 71.1826 27.961 71.2447 28.167C71.4831 28.954 79.0579 28.0387 79.2465 26.656C79.3949 25.5667 78.7077 22.3362 78.2375 21.1317C78.1257 20.844 78.005 20.8239 77.9348 20.8024ZM65.8656 28.3306C65.6214 29.4893 56.8379 30.3442 56.5528 29.7174C56.4504 29.4927 55.5986 26.2899 55.2272 25.0279C55.1212 24.6674 55.3456 24.3096 55.7331 24.2077C57.8038 23.6647 64.1064 22.9103 64.4588 22.9852C64.8822 23.076 66.109 27.1726 65.8656 28.3306ZM78.4715 26.3232C78.3114 27.4292 72.0855 28.1642 71.894 27.5422C71.826 27.321 71.2623 24.3047 71.0429 23.128C70.9808 22.7952 71.1577 22.4735 71.4407 22.3889C72.9381 21.9402 77.2395 21.4285 77.4837 21.502C77.7776 21.5901 78.6287 25.2374 78.4715 26.3232Z" fill="#6A3C3E"/>
<path d="M72.196 31.7996C72.3386 31.2511 70.9933 29.4046 69.3576 25.9799C69.0959 25.4314 68.3494 23.8942 68.4634 23.8942C68.4993 23.8949 68.8853 24.2693 69.2516 24.7138C70.7776 26.5679 74.3339 31.4598 73.6327 32.5097C73.1626 33.2135 72.7393 33.6857 69.9784 33.9055C68.9709 33.9859 67.9399 33.9207 67.597 33.6018C67.4859 33.5054 67.9977 33.4097 68.9804 33.3383C70.2921 33.2433 72.0703 32.4334 72.196 31.7996Z" fill="#E78B57"/>
<path d="M134.372 102.086C134.372 102.086 134.69 103.212 135.721 103.807C136.754 104.4 137.958 104.148 137.958 104.148C137.958 104.148 199.795 20.6694 198.992 19.9108L198.981 19.9046C198.327 19.3901 134.372 102.086 134.372 102.086Z" fill="#404040"/>
<path d="M161.337 76.0106C160.651 76.575 159.845 76.9966 158.971 77.2317C158.115 77.4619 157.074 77.7982 156.727 78.1428C156.104 78.7634 156.043 79.9186 159.558 79.2689C162.008 78.8161 162.624 78.1345 163.122 77.4452C163.621 76.756 163.725 74.0469 163.725 74.0469L161.337 76.0106Z" fill="#FFB87F"/>
<path d="M160.023 76.8278C159.686 76.99 159.338 77.1329 158.971 77.232C158.115 77.4622 157.074 77.7985 156.727 78.1431C156.104 78.7637 156.043 79.9189 159.558 79.2692C159.857 79.2138 160.12 79.1541 160.366 79.0917C159.992 78.3976 159.875 77.585 160.023 76.8278Z" fill="#F39F6D"/>
<path d="M156.529 78.6391C156.46 78.1378 157.74 77.8681 157.792 77.9069C157.792 77.9069 158.489 78.2931 157.932 78.9463C157.578 79.0877 157.313 79.1009 157.071 79.0628C156.679 79.0011 156.56 78.8617 156.529 78.6391Z" fill="#FFC9A2"/>
<path d="M160.851 77.0074C161.748 76.6627 162.648 76.3223 163.545 75.9763C163.686 75.0395 163.724 74.0472 163.724 74.0472L161.337 76.0103C160.65 76.5747 159.844 76.9963 158.97 77.2313C158.203 77.438 157.29 77.7299 156.859 78.0371C158.109 77.5545 159.525 77.5163 160.851 77.0074Z" fill="#D8733A"/>
<path d="M150.269 72.7701C150.269 72.7701 153.488 70.8515 154.506 69.9653C155.476 69.1207 157.03 70.5124 160.536 67.6944C160.896 67.4053 161.473 67.5058 161.65 67.9205C161.9 68.5036 161.889 69.507 160.611 71.0879C159.019 73.0551 156.416 72.9982 155.835 73.175C155.253 73.3519 154.443 76.4354 150.54 76.1678C148.508 76.0284 150.269 72.7701 150.269 72.7701Z" fill="#FFB87F"/>
<path d="M161.65 67.9196C161.632 67.8787 161.596 67.8558 161.572 67.8212C161.515 68.188 161.4 68.5492 161.226 68.9063C160.487 70.4228 158.655 71.2583 156.937 71.1342C156.43 71.0975 156.006 71.0552 155.589 70.9678C155.62 72.7991 154.38 74.6324 153.855 75.3043C155.03 74.4591 155.481 73.2831 155.835 73.1749C156.416 72.9974 159.019 73.0549 160.611 71.0878C161.889 69.5061 161.9 68.5028 161.65 67.9196Z" fill="#F39F6D"/>
<path d="M158.814 68.8707C158.814 68.8707 160.374 67.755 160.464 67.7516C160.464 67.7516 160.97 67.2925 161.008 68.4346C160.775 68.8783 160.396 69.32 160.118 69.4968C159.623 69.8116 159.026 69.1009 158.814 68.8707Z" fill="#FFDDC4"/>
<path d="M159.374 74.6252C158.356 75.0198 155.92 76.4634 156.333 77.179C156.839 78.0527 158.503 77.4647 160.294 76.8691C162.085 76.2735 164.473 75.5842 164.598 74.7771C164.722 73.97 164.514 72.2566 164.514 72.2566C164.514 72.2566 159.636 74.5233 159.374 74.6252Z" fill="#FFB87F"/>
<path d="M160.352 74.1909C160.352 74.1882 160.35 74.1854 160.35 74.1826C159.825 74.4239 159.442 74.598 159.373 74.6243C158.355 75.0189 155.919 76.4625 156.332 77.1781C156.838 78.0518 158.502 77.4638 160.293 76.8682C160.35 76.8494 160.411 76.8293 160.469 76.8099C160.082 75.9861 160.037 75.0202 160.352 74.1909Z" fill="#F39F6D"/>
<path d="M156.463 76.9843C156.289 76.442 157.649 75.9164 157.714 75.9504C157.714 75.9504 158.56 76.2541 158.075 77.0744C157.712 77.2935 157.421 77.3552 157.146 77.3559C156.7 77.3573 156.541 77.2242 156.463 76.9843Z" fill="#FFC9A2"/>
<path d="M164.585 72.9867C164.552 72.5672 164.514 72.2551 164.514 72.2551C164.514 72.2551 159.636 74.5225 159.373 74.6245C158.941 74.7923 158.251 75.1508 157.633 75.5613C159.972 75.1466 162.097 73.8319 164.585 72.9867Z" fill="#D8733A"/>
<path d="M160.928 71.3609C160.347 71.7728 159.729 72.1306 159.072 72.4218C157.701 73.0285 155.047 74.3564 155.731 75.2689C156.178 75.8645 156.843 75.8001 158.139 75.2758C159.243 74.8293 160.632 74.224 160.947 74.0464C161.564 73.6984 165.224 72.6333 165.221 71.6833C165.217 70.4567 165.47 68.769 163.31 69.911C162.134 70.5344 161.441 70.9976 160.928 71.3609Z" fill="#FFB87F"/>
<path d="M159.648 72.1293C159.457 72.2291 159.269 72.3345 159.071 72.4219C157.701 73.0286 155.046 74.3565 155.731 75.269C156.177 75.8646 156.843 75.8001 158.139 75.2759C159.082 74.8952 160.224 74.4008 160.737 74.1526C160.141 73.6208 159.735 72.8872 159.648 72.1293Z" fill="#F39F6D"/>
<path d="M155.773 75.061C155.579 74.4585 157.091 73.8739 157.165 73.9114C157.165 73.9114 158.106 74.2484 157.565 75.1609C157.162 75.4043 156.838 75.4729 156.532 75.4743C156.037 75.4764 155.859 75.3287 155.773 75.061Z" fill="#FFC9A2"/>
<path d="M61.7199 26.1058C61.7199 26.2861 61.5495 26.4324 61.3397 26.4324C61.1298 26.4324 60.9595 26.2861 60.9595 26.1058C60.9595 25.9255 61.1298 25.7792 61.3397 25.7792C61.5495 25.7799 61.7199 25.9262 61.7199 26.1058Z" fill="white"/>
<path d="M75.2248 24.6045C75.2248 24.7848 75.0544 24.9311 74.8446 24.9311C74.6347 24.9311 74.4644 24.7848 74.4644 24.6045C74.4644 24.4243 74.6347 24.278 74.8446 24.278C75.0551 24.2786 75.2248 24.4243 75.2248 24.6045Z" fill="white"/>
<defs>
<radialGradient id="paint0_radial_151_1806" cx="0" cy="0" r="1" gradientUnits="userSpaceOnUse" gradientTransform="translate(75.5142 30.8307) scale(2.87887 2.73019)">
<stop stop-color="#FFAB87"/>
<stop offset="0.5034" stop-color="#FFAE85"/>
<stop offset="0.8953" stop-color="#FFB87F"/>
<stop offset="0.8984" stop-color="#FFB87F"/>
</radialGradient>
<radialGradient id="paint1_radial_151_1806" cx="0" cy="0" r="1" gradientUnits="userSpaceOnUse" gradientTransform="translate(61.5369 32.153) rotate(7.40666) scale(3.33621 3.16979)">
<stop stop-color="#FFAB87"/>
<stop offset="0.5034" stop-color="#FFAE85"/>
<stop offset="0.8953" stop-color="#FFB87F"/>
<stop offset="0.8984" stop-color="#FFB87F"/>
</radialGradient>
<radialGradient id="paint2_radial_151_1806" cx="0" cy="0" r="1" gradientUnits="userSpaceOnUse" gradientTransform="translate(59.6441 30.245) scale(4.55133 4.31627)">
<stop stop-color="#847773"/>
<stop offset="1" stop-color="#402D26"/>
</radialGradient>
<radialGradient id="paint3_radial_151_1806" cx="0" cy="0" r="1" gradientUnits="userSpaceOnUse" gradientTransform="translate(74.2535 28.4361) scale(3.98417 3.7784)">
<stop stop-color="#847773"/>
<stop offset="1" stop-color="#402D26"/>
</radialGradient>
</defs>
</svg>
