<svg width="188" height="188" viewBox="0 0 188 188" fill="none" xmlns="http://www.w3.org/2000/svg">
<path d="M170.307 187.714H17.407C7.793 187.714 0 179.921 0 170.307V17.407C0 7.79301 7.793 0 17.407 0H170.308C179.922 0 187.715 7.79301 187.715 17.407V170.308C187.714 179.921 179.921 187.714 170.307 187.714Z" fill="url(#paint0_linear_379_1209)"/>
<path d="M132.325 149.34C141.722 149.34 149.34 141.722 149.34 132.325C149.34 122.928 141.722 115.31 132.325 115.31C122.928 115.31 115.31 122.928 115.31 132.325C115.31 141.722 122.928 149.34 132.325 149.34Z" fill="url(#paint1_radial_379_1209)"/>
<path d="M131.831 71.9719C141.228 71.9719 148.846 64.354 148.846 54.9569C148.846 45.5598 141.228 37.9419 131.831 37.9419C122.434 37.9419 114.816 45.5598 114.816 54.9569C114.816 64.354 122.434 71.9719 131.831 71.9719Z" fill="url(#paint2_radial_379_1209)"/>
<path d="M55.8309 71.9719C65.2281 71.9719 72.8459 64.354 72.8459 54.9569C72.8459 45.5598 65.2281 37.9419 55.8309 37.9419C46.4338 37.9419 38.8159 45.5598 38.8159 54.9569C38.8159 64.354 46.4338 71.9719 55.8309 71.9719Z" fill="url(#paint3_radial_379_1209)"/>
<path d="M55.8309 148.972C65.2281 148.972 72.8459 141.354 72.8459 131.957C72.8459 122.56 65.2281 114.942 55.8309 114.942C46.4338 114.942 38.8159 122.56 38.8159 131.957C38.8159 141.354 46.4338 148.972 55.8309 148.972Z" fill="url(#paint4_radial_379_1209)"/>
<defs>
<linearGradient id="paint0_linear_379_1209" x1="5.098" y1="5.0982" x2="182.616" y2="182.616" gradientUnits="userSpaceOnUse">
<stop offset="0.00039279" stop-color="#333333"/>
<stop offset="0.00049279" stop-color="#252525"/>
<stop offset="0.00059279" stop-color="#2F2F2F"/>
<stop offset="0.00069279" stop-color="#131313"/>
<stop offset="0.00079279" stop-color="white"/>
</linearGradient>
<radialGradient id="paint1_radial_379_1209" cx="0" cy="0" r="1" gradientUnits="userSpaceOnUse" gradientTransform="translate(137.633 141.703) scale(22.793 22.793)">
<stop offset="1" stop-color="#565656"/>
</radialGradient>
<radialGradient id="paint2_radial_379_1209" cx="0" cy="0" r="1" gradientUnits="userSpaceOnUse" gradientTransform="translate(137.139 64.3348) scale(22.793 22.793)">
<stop offset="1" stop-color="#565656"/>
</radialGradient>
<radialGradient id="paint3_radial_379_1209" cx="0" cy="0" r="1" gradientUnits="userSpaceOnUse" gradientTransform="translate(61.1389 64.3348) scale(22.793 22.793)">
<stop offset="1" stop-color="#565656"/>
</radialGradient>
<radialGradient id="paint4_radial_379_1209" cx="0" cy="0" r="1" gradientUnits="userSpaceOnUse" gradientTransform="translate(61.1389 141.335) scale(22.793 22.793)">
<stop offset="1" stop-color="#565656"/>
</radialGradient>
</defs>
</svg>
