<svg width="188" height="188" viewBox="0 0 188 188" fill="none" xmlns="http://www.w3.org/2000/svg">
<path d="M170.307 187.714H17.407C7.793 187.714 0 179.921 0 170.307V17.407C0 7.79301 7.793 0 17.407 0H170.308C179.922 0 187.715 7.79301 187.715 17.407V170.308C187.714 179.921 179.921 187.714 170.307 187.714Z" fill="url(#paint0_linear_379_1059)"/>
<path d="M94.015 111.03C103.412 111.03 111.03 103.412 111.03 94.015C111.03 84.6179 103.412 77 94.015 77C84.6179 77 77 84.6179 77 94.015C77 103.412 84.6179 111.03 94.015 111.03Z" fill="url(#paint1_radial_379_1059)"/>
<defs>
<linearGradient id="paint0_linear_379_1059" x1="5.098" y1="5.0982" x2="182.616" y2="182.616" gradientUnits="userSpaceOnUse">
<stop offset="0.00039279" stop-color="#333333"/>
<stop offset="0.00049279" stop-color="#252525"/>
<stop offset="0.00059279" stop-color="#2F2F2F"/>
<stop offset="0.00069279" stop-color="#131313"/>
<stop offset="0.00079279" stop-color="white"/>
</linearGradient>
<radialGradient id="paint1_radial_379_1059" cx="0" cy="0" r="1" gradientUnits="userSpaceOnUse" gradientTransform="translate(99.323 103.393) scale(22.793 22.793)">
<stop offset="1" stop-color="#565656"/>
</radialGradient>
</defs>
</svg>
